<svg width="23" height="22" viewBox="0 0 23 22" fill="none" xmlns="http://www.w3.org/2000/svg">
<path d="M11.1799 0.0033869C14.1097 0.0033869 17.0396 -0.00423363 19.9695 0.0033869C21.4119 0.0110074 22.4486 1.20743 22.2909 2.67057C22.2308 3.21925 21.9603 3.66886 21.5997 4.07275C19.2107 6.72469 16.8368 9.39188 14.4403 12.0362C14.1548 12.3486 14.0346 12.6535 14.0421 13.0802C14.0647 14.3909 14.0421 15.6941 14.0572 17.0048C14.0572 17.4087 13.9294 17.7059 13.6139 17.9573C12.3293 18.9861 11.0521 20.0301 9.77501 21.0665C9.467 21.318 9.14396 21.4856 8.7458 21.2951C8.33261 21.097 8.25748 20.7312 8.25748 20.3121C8.26499 17.8354 8.25748 15.3587 8.26499 12.8821C8.26499 12.5925 8.18236 12.3867 7.99454 12.1734C5.56048 9.46808 3.12642 6.75517 0.692365 4.04227C-0.381927 2.84584 -0.186601 1.10836 1.14312 0.353931C1.52626 0.132936 2.02208 0.0262485 2.46532 0.018628C5.37267 -0.00423363 8.27251 0.0033869 11.1799 0.0033869Z" fill="black"/>
</svg>
