<svg width="99" height="99" viewBox="0 0 99 99" fill="none" xmlns="http://www.w3.org/2000/svg">
<rect width="99" height="99" rx="15.5294" fill="url(#paint0_linear_2_6010)"/>
<path d="M75.9638 38.6063C75.679 37.3132 74.6297 36.3322 73.3705 36.1687C72.0363 35.9903 70.7622 36.6443 70.1775 37.878C69.533 39.2752 69.8478 40.5237 70.7922 41.4453C69.2781 43.0357 67.914 44.745 66.2801 46.1273C64.0615 48.015 60.5987 47.5839 58.7849 45.2801C56.4464 42.3222 54.2129 39.2752 51.9493 36.2876C53.1036 34.5188 53.0286 32.973 51.7545 31.8434C50.6152 30.8327 48.8763 30.7881 47.7071 31.7542C46.343 32.869 46.238 34.3999 47.4373 36.3619C45.1437 39.3644 42.8952 42.4263 40.5117 45.3693C38.623 47.7029 35.0403 47.9258 32.8067 45.9192C31.2627 44.5815 29.8836 43.0803 28.3696 41.5939C29.4489 40.5683 29.7187 39.3792 29.254 38.0861C28.7743 36.7781 27.4402 36.0201 26.0311 36.1538C24.7419 36.2876 23.6476 37.2835 23.3628 38.5915C23.078 39.8995 23.7076 41.2372 24.9068 41.9358C25.1317 42.0696 25.4165 42.2925 25.4765 42.5155C26.5558 46.7219 27.6051 50.958 28.6694 55.1644C28.9542 56.3237 29.3739 56.6656 30.5432 56.6656C43.2999 56.6359 56.0717 56.6062 68.8284 56.5616C70.0576 56.5616 70.4923 56.2494 70.7922 55.0752C71.8415 50.9729 72.8758 46.8854 73.8802 42.7681C73.9851 42.3371 74.105 42.0547 74.5397 41.8169C75.694 41.1926 76.2486 39.8697 75.9638 38.6063Z" fill="#F7F7F7"/>
<path d="M68.3046 59.8008H31.2186C31.0387 59.8008 30.8738 59.8008 30.6939 59.8008C29.7046 59.8454 29.1349 60.4251 29.1199 61.406C29.105 62.3276 29.1199 63.2343 29.1199 64.1558C29.1199 65.8057 29.5547 66.2367 31.1886 66.2367C37.3796 66.2367 43.5706 66.2367 49.7616 66.2367H58.9057C62.0836 66.2367 65.2466 66.2367 68.4245 66.2367C69.9236 66.2367 70.3583 65.8057 70.3583 64.349C70.3583 63.5018 70.3583 62.6695 70.3583 61.8222C70.3433 60.217 69.9236 59.8008 68.3046 59.8008Z" fill="#F7F7F7"/>
<defs>
<linearGradient id="paint0_linear_2_6010" x1="-1.19552e-08" y1="48.3488" x2="99.0172" y2="48.7539" gradientUnits="userSpaceOnUse">
<stop stop-color="#FF9E00"/>
<stop offset="1" stop-color="#D88C0F"/>
</linearGradient>
</defs>
</svg>
